<svg xmlns="http://www.w3.org/2000/svg" xmlns:xlink="http://www.w3.org/1999/xlink" viewBox="0 0 65 65" fill="#fff" fill-rule="evenodd" stroke="#000" stroke-linecap="round" stroke-linejoin="round"><use xlink:href="#A" x=".5" y=".5"/><symbol id="A" overflow="visible"><svg width="64" height="64"><defs><filter id="B" x="-15.24%" y="-8.45%" width="130.48%" height="116.9%"><feGaussianBlur in="SourceAlpha" stdDeviation="2"/><feOffset result="A"/><feFlood flood-color="#000" flood-opacity=".5"/><feComposite in2="A" operator="in" result="B"/><feMerge><feMergeNode in="B"/><feMergeNode in="SourceGraphic"/></feMerge></filter></defs><g stroke="none"><path d="M16.5 3.06l.04 59.44c.02.02 1.03-.08 2.26-.2l3.77-.38 5.6-.36c.13 0 .14-.67.16-12.58l.02-12.58 1.27 3.56 1.4-29.24-2.73-7.65H16.5zm21.24.04l-.05 26.27-1.1-3.05-1.4 29.24 2.13 5.96a36.17 36.17 0 0 0 1.76.1l10.38.86.04-29.72-.02-29.66H37.74z" fill="#b1060f"/><path d="M0 0l20.82 58.46 1.76.1 9.18.8 1.2.08L11.8 0H0z" fill="#e50914" filter="url(#B)" transform="translate(16.5 3.06)"/></g></svg></symbol></svg>